PathFileType	4	(X/Y/Z)	 s10c0201.trc
DataRate	CameraRate	NumFrames	NumMarkers	Units	OrigDataRate	OrigDataStartFrame	OrigNumFrames
200	200	4	50	mm	200	251	2000
Frame#	Time	racr			lacr			c7			jug			rlel			rdr			llel			ldr			s2			lic			ric			lasi			rasi			rpsi			lpsi			rgt			lgt			rth1			rth2			rth3			rth4			rlfc			rmfc			rsh1			rsh2			rsh3			rsh4			rlmal			rmmal			rcal			rtoe			rmt5			lth1			lth2			lth4			lth3			llfc			lmfc			llmal			lmmal			lcal			lmt5			lsh1			lsh2			lsh3			lsh4			ltoe			SBIKE			LBIKE			RBIKE			
		X1	Y1	Z1	X2	Y2	Z2	X3	Y3	Z3	X4	Y4	Z4	X5	Y5	Z5	X6	Y6	Z6	X7	Y7	Z7	X8	Y8	Z8	X9	Y9	Z9	X10	Y10	Z10	X11	Y11	Z11	X12	Y12	Z12	X13	Y13	Z13	X14	Y14	Z14	X15	Y15	Z15	X16	Y16	Z16	X17	Y17	Z17	X18	Y18	Z18	X19	Y19	Z19	X20	Y20	Z20	X21	Y21	Z21	X22	Y22	Z22	X23	Y23	Z23	X24	Y24	Z24	X25	Y25	Z25	X26	Y26	Z26	X27	Y27	Z27	X28	Y28	Z28	X29	Y29	Z29	X30	Y30	Z30	X31	Y31	Z31	X32	Y32	Z32	X33	Y33	Z33	X34	Y34	Z34	X35	Y35	Z35	X36	Y36	Z36	X37	Y37	Z37	X38	Y38	Z38	X39	Y39	Z39	X40	Y40	Z40	X41	Y41	Z41	X42	Y42	Z42	X43	Y43	Z43	X44	Y44	Z44	X45	Y45	Z45	X46	Y46	Z46	X47	Y47	Z47	X48	Y48	Z48	X49	Y49	Z49	X50	Y50	Z50	
251	1.2550	416.599715	1344.448304	-23.833242	438.470069	1355.208873	-352.389668	409.923963	1379.901144	-190.612747	435.348769	1239.634918	-183.302364	472.829330	1083.228260	44.254146	626.121264	911.875035	2.595145	500.864187	1086.369692	-435.493613	643.222432	911.584961	-383.547281	-62.131993	1109.451523	-221.653550	113.623685	1089.349994	-363.056971	116.742852	1097.478129	-66.154313	123.708228	1000.243601	-332.008046	101.860529	1016.217019	-77.941501	-15.395260	1144.044258	-160.411013	-0.617597	1147.180104	-272.486659	-22.991345	1026.426895	-18.349830	-11.478897	985.191615	-415.623717	60.716532	932.045003	16.444311	149.521088	921.601828	11.288824	217.621008	869.742552	13.159824	161.655777	955.485730	-1.662126	327.204764	822.703220	1.767392	332.245010	814.463308	-116.142011	265.255572	719.580200	13.971487	264.253612	631.909346	-3.784734	220.158934	559.550905	-20.591224	296.406171	628.031763	-23.857225	197.142874	457.813687	-48.501493	225.899674	483.145239	-121.844748	149.407356	430.911115	-96.871401	391.085373	431.195134	-80.490909	308.693406	398.473969	-22.291367	53.465643	872.090464	-433.349310	127.537962	827.685109	-420.507567	152.029897	852.656171	-407.970807	170.329991	749.926704	-416.047273	240.731723	662.666942	-394.850073	242.571619	656.441569	-275.140677	-3.035285	380.298296	-377.680871	11.796164	372.718896	-299.744490	-61.189019	387.498741	-334.359167	40.124176	242.522717	-396.719622	146.586619	582.590058	-419.363487	121.068471	499.807681	-404.057620	53.889789	441.318304	-396.703019	146.839278	487.252760	-378.753544	119.520049	210.694302	-338.062607	-205.075078	834.387062	-224.606679	-78.242026	81.703911	-423.696317	-102.753557	80.442235	-24.387772	
252	1.2600	416.584478	1344.436852	-23.824187	438.476600	1355.205883	-352.369828	409.914416	1379.899677	-190.590376	435.342234	1239.619515	-183.292172	472.816759	1083.207615	44.265852	626.079354	911.873087	2.527142	500.856550	1086.368708	-435.491990	643.226879	911.585360	-383.528644	-62.160260	1109.446540	-221.657254	113.593144	1089.364978	-363.043957	116.708992	1097.478556	-66.158081	123.699724	1000.248638	-332.007416	101.842204	1016.219414	-77.930380	-15.428445	1144.063374	-160.404434	-0.640931	1147.179440	-272.497123	-23.006488	1026.419998	-18.342246	-11.494171	985.151753	-415.602235	60.724139	932.042843	16.431551	149.537913	921.599561	11.254110	217.622953	869.735445	13.124685	161.632384	955.457079	-1.730617	327.199589	822.701458	1.728494	332.231846	814.456911	-116.202159	265.256827	719.580958	13.937260	264.218415	631.927148	-3.821954	220.121686	559.542932	-20.589250	296.366940	628.022653	-23.891012	197.129765	457.810177	-48.510044	225.880573	483.135740	-121.829567	149.392377	430.886571	-96.861255	391.062608	431.196279	-80.486317	308.674697	398.481524	-22.293081	53.442395	871.939182	-433.232707	127.537435	827.629201	-420.493101	152.002812	852.615314	-407.983341	170.306083	749.880840	-416.028269	240.730684	662.647115	-394.825166	242.568030	656.421833	-275.133046	-3.038481	380.283985	-377.674968	11.829150	372.696966	-299.744563	-61.192087	387.481364	-334.366445	40.142453	242.540675	-396.729404	146.551214	582.572303	-419.339708	121.040282	499.788589	-404.016310	53.888630	441.302336	-396.688745	146.821143	487.245092	-378.773652	119.515147	210.698720	-338.071577	-205.070167	834.384582	-224.602576	-78.256710	81.717854	-423.710194	-102.748102	80.443275	-24.391534	
253	1.2650	416.547036	1344.414038	-23.818507	438.479528	1355.198135	-352.344459	409.917335	1379.873503	-190.584829	435.323460	1239.610070	-183.282780	472.794803	1083.176441	44.280417	626.059914	911.843069	2.483095	500.857902	1086.358100	-435.489546	643.222025	911.574367	-383.511042	-62.180850	1109.428430	-221.671737	113.566235	1089.361114	-363.028582	116.674901	1097.492851	-66.150991	123.669665	1000.234084	-331.989654	101.853978	1016.227482	-77.962562	-15.543891	1144.044281	-160.465370	-0.654972	1147.166785	-272.501527	-23.022175	1026.415415	-18.341009	-11.499509	985.115415	-415.605188	60.723652	932.037515	16.397223	149.563008	921.573073	11.206137	217.630726	869.732698	13.054772	161.628816	955.448310	-1.777960	327.208929	822.697964	1.677372	332.214501	814.449679	-116.250965	265.249767	719.592625	13.889045	264.193515	631.937153	-3.828381	220.087774	559.561182	-20.599076	296.335836	628.010296	-23.914654	197.117387	457.796741	-48.514289	225.873853	483.098571	-121.873981	149.378949	430.849079	-96.875960	391.049551	431.227460	-80.495988	308.664860	398.486766	-22.299288	53.431232	871.899881	-433.225413	127.498655	827.596940	-420.476535	152.001308	852.591624	-407.983797	170.297094	749.825403	-416.002390	240.721158	662.640876	-394.816440	242.559478	656.412552	-275.131450	-3.035253	380.273160	-377.657020	11.841696	372.661947	-299.759451	-61.184469	387.483673	-334.362560	40.151994	242.545360	-396.704832	146.528389	582.582073	-419.328200	121.038846	499.795068	-404.037632	53.874334	441.296648	-396.678088	146.810058	487.245269	-378.764158	119.536276	210.717593	-338.095386	-205.071413	834.394109	-224.590782	-78.236136	81.724085	-423.688534	-102.755787	80.462777	-24.400210	
254	1.2700	416.525041	1344.390792	-23.824768	438.486491	1355.182404	-352.320802	409.886657	1379.846271	-190.583295	435.296911	1239.588312	-183.251991	472.768925	1083.128350	44.302804	626.068889	911.845770	2.450479	500.842381	1086.340187	-435.492978	643.215179	911.558759	-383.521865	-62.216912	1109.428013	-221.657702	113.519211	1089.331197	-362.962984	116.625088	1097.511172	-66.161665	123.645722	1000.261279	-332.012624	101.825102	1016.242739	-77.960265	-15.564486	1144.050576	-160.478242	-0.698858	1147.171235	-272.497679	-23.032378	1026.417415	-18.359641	-11.525492	985.091960	-415.599686	60.755751	931.963850	16.375453	149.538716	921.607724	11.188513	217.640283	869.729931	13.017880	161.614289	955.426434	-1.819119	327.190490	822.694510	1.590939	332.203398	814.445684	-116.321801	265.223769	719.608642	13.849334	264.177197	631.947441	-3.869931	220.080480	559.551827	-20.621029	296.325936	628.013389	-23.934931	197.098378	457.799620	-48.532369	225.828399	483.086221	-121.861168	149.335977	430.807480	-96.847051	391.039776	431.231911	-80.481616	308.645135	398.519791	-22.302263	53.400446	871.880257	-433.243341	127.476827	827.540655	-420.481984	151.975646	852.547251	-407.968792	170.282770	749.798191	-416.004382	240.707529	662.625104	-394.792348	242.540471	656.396143	-275.106758	-3.033338	380.267451	-377.658486	11.808185	372.685871	-299.744380	-61.194215	387.468756	-334.349604	40.149409	242.532774	-396.718910	146.523489	582.578396	-419.324882	121.040260	499.788659	-404.016410	53.875047	441.308730	-396.666925	146.806911	487.249223	-378.781920	119.537308	210.686602	-338.082831	-205.074068	834.393573	-224.584605	-78.246816	81.705717	-423.684939	-102.749485	80.451516	-24.386474	
